solid OpenSCAD_Model
  facet normal 0.866026 0.499999 0
    outer loop
      vertex 49.9996 0.000634766 74
      vertex 25 43.3013 0
      vertex 25 43.3013 74
    endloop
  endfacet
  facet normal 0.866026 0.499999 0
    outer loop
      vertex 25 43.3013 0
      vertex 49.9996 0.000634766 74
      vertex 49.9996 0.000634766 0
    endloop
  endfacet
  facet normal -0.866026 0.499999 0
    outer loop
      vertex -49.9996 0.000634766 0
      vertex -25 43.3013 74
      vertex -25 43.3013 0
    endloop
  endfacet
  facet normal -0.866026 0.499999 0
    outer loop
      vertex -25 43.3013 74
      vertex -49.9996 0.000634766 0
      vertex -49.9996 0.000634766 74
    endloop
  endfacet
  facet normal 0 1 -0
    outer loop
      vertex 25 43.3013 0
      vertex -25 43.3013 74
      vertex 25 43.3013 74
    endloop
  endfacet
  facet normal 0 1 0
    outer loop
      vertex -25 43.3013 74
      vertex 25 43.3013 0
      vertex -25 43.3013 0
    endloop
  endfacet
  facet normal 0 0 1
    outer loop
      vertex 25 43.3013 74
      vertex 45 0 74
      vertex 49.9996 0.000634766 74
    endloop
  endfacet
  facet normal 0 0 1
    outer loop
      vertex 25 43.3013 74
      vertex 22.5 38.9711 74
      vertex 45 0 74
    endloop
  endfacet
  facet normal 0 0 1
    outer loop
      vertex 25 43.3013 74
      vertex -22.5 38.9711 74
      vertex 22.5 38.9711 74
    endloop
  endfacet
  facet normal -0 0 1
    outer loop
      vertex -25 43.3013 74
      vertex -22.5 38.9711 74
      vertex 25 43.3013 74
    endloop
  endfacet
  facet normal 0 0 1
    outer loop
      vertex -25 43.3013 74
      vertex -45 0 74
      vertex -22.5 38.9711 74
    endloop
  endfacet
  facet normal 0 -0 1
    outer loop
      vertex -45 0 74
      vertex -25 43.3013 74
      vertex -49.9996 0.000634766 74
    endloop
  endfacet
  facet normal 0 0 1
    outer loop
      vertex 100 0.00126953 74
      vertex 120 -43.3 74
      vertex 125 -43.3 74
    endloop
  endfacet
  facet normal 0 0 1
    outer loop
      vertex 100 0.00126953 74
      vertex 97.5 -4.32886 74
      vertex 120 -43.3 74
    endloop
  endfacet
  facet normal 0 0 1
    outer loop
      vertex 100 0.00126953 74
      vertex 52.5 -4.32886 74
      vertex 97.5 -4.32886 74
    endloop
  endfacet
  facet normal -0 0 1
    outer loop
      vertex 50 0.00126953 74
      vertex 52.5 -4.32886 74
      vertex 100 0.00126953 74
    endloop
  endfacet
  facet normal -0 0 1
    outer loop
      vertex 49.9996 0.000634766 74
      vertex 52.5 -4.32886 74
      vertex 50 0.00126953 74
    endloop
  endfacet
  facet normal -0 0 1
    outer loop
      vertex 45 0 74
      vertex 52.5 -4.32886 74
      vertex 49.9996 0.000634766 74
    endloop
  endfacet
  facet normal 0 0 1
    outer loop
      vertex 45 0 74
      vertex 30 -43.3 74
      vertex 52.5 -4.32886 74
    endloop
  endfacet
  facet normal -0 0 1
    outer loop
      vertex 22.5 -38.9711 74
      vertex 30 -43.3 74
      vertex 45 0 74
    endloop
  endfacet
  facet normal 0 0 1
    outer loop
      vertex 30 -43.3 74
      vertex 22.5 -38.9711 74
      vertex 25.0004 -43.3006 74
    endloop
  endfacet
  facet normal 0 0 1
    outer loop
      vertex 25.0004 -43.3006 74
      vertex 22.5 -38.9711 74
      vertex 25 -43.3013 74
    endloop
  endfacet
  facet normal -0 0 1
    outer loop
      vertex -22.5 -38.9711 74
      vertex 25 -43.3013 74
      vertex 22.5 -38.9711 74
    endloop
  endfacet
  facet normal 0 0 1
    outer loop
      vertex -22.5 -38.9711 74
      vertex -25 -43.3013 74
      vertex 25 -43.3013 74
    endloop
  endfacet
  facet normal 0 0 1
    outer loop
      vertex -22.5 -38.9711 74
      vertex -25.0004 -43.3006 74
      vertex -25 -43.3013 74
    endloop
  endfacet
  facet normal 0 0 1
    outer loop
      vertex -22.5 -38.9711 74
      vertex -30 -43.3 74
      vertex -25.0004 -43.3006 74
    endloop
  endfacet
  facet normal 0 0 1
    outer loop
      vertex -45 0 74
      vertex -30 -43.3 74
      vertex -22.5 -38.9711 74
    endloop
  endfacet
  facet normal 0 0 1
    outer loop
      vertex -52.5 -4.32886 74
      vertex -45 0 74
      vertex -49.9996 0.000634766 74
    endloop
  endfacet
  facet normal 0 0 1
    outer loop
      vertex -52.5 -4.32886 74
      vertex -49.9996 0.000634766 74
      vertex -50 0.00126953 74
    endloop
  endfacet
  facet normal 0 0 1
    outer loop
      vertex -45 0 74
      vertex -52.5 -4.32886 74
      vertex -30 -43.3 74
    endloop
  endfacet
  facet normal 0 0 1
    outer loop
      vertex -50 0.00126953 74
      vertex -97.5 -4.32886 74
      vertex -52.5 -4.32886 74
    endloop
  endfacet
  facet normal -0 0 1
    outer loop
      vertex -100 0.00126953 74
      vertex -97.5 -4.32886 74
      vertex -50 0.00126953 74
    endloop
  endfacet
  facet normal 0 0 1
    outer loop
      vertex -100 0.00126953 74
      vertex -120 -43.3 74
      vertex -97.5 -4.32886 74
    endloop
  endfacet
  facet normal 0 -0 1
    outer loop
      vertex -120 -43.3 74
      vertex -100 0.00126953 74
      vertex -125 -43.3 74
    endloop
  endfacet
  facet normal -0 0 1
    outer loop
      vertex 120 -43.3 74
      vertex 100 -86.6013 74
      vertex 125 -43.3 74
    endloop
  endfacet
  facet normal -0 0 1
    outer loop
      vertex 97.5 -82.2711 74
      vertex 100 -86.6013 74
      vertex 120 -43.3 74
    endloop
  endfacet
  facet normal -0 0 1
    outer loop
      vertex 52.5 -82.2711 74
      vertex 100 -86.6013 74
      vertex 97.5 -82.2711 74
    endloop
  endfacet
  facet normal 0 0 1
    outer loop
      vertex 52.5 -82.2711 74
      vertex 50 -86.6013 74
      vertex 100 -86.6013 74
    endloop
  endfacet
  facet normal 0 0 1
    outer loop
      vertex 30 -43.3 74
      vertex 50 -86.6013 74
      vertex 52.5 -82.2711 74
    endloop
  endfacet
  facet normal 0 0 1
    outer loop
      vertex 50 -86.6013 74
      vertex 30 -43.3 74
      vertex 25.0004 -43.3006 74
    endloop
  endfacet
  facet normal 0 0 1
    outer loop
      vertex -30 -43.3 74
      vertex -50 -86.6013 74
      vertex -25.0004 -43.3006 74
    endloop
  endfacet
  facet normal -0 0 1
    outer loop
      vertex -52.5 -82.2711 74
      vertex -50 -86.6013 74
      vertex -30 -43.3 74
    endloop
  endfacet
  facet normal -0 0 1
    outer loop
      vertex -97.5 -82.2711 74
      vertex -50 -86.6013 74
      vertex -52.5 -82.2711 74
    endloop
  endfacet
  facet normal 0 0 1
    outer loop
      vertex -97.5 -82.2711 74
      vertex -100 -86.6013 74
      vertex -50 -86.6013 74
    endloop
  endfacet
  facet normal 0 0 1
    outer loop
      vertex -120 -43.3 74
      vertex -100 -86.6013 74
      vertex -97.5 -82.2711 74
    endloop
  endfacet
  facet normal 0 0 1
    outer loop
      vertex -100 -86.6013 74
      vertex -120 -43.3 74
      vertex -125 -43.3 74
    endloop
  endfacet
  facet normal 0.868243 -0.496139 0
    outer loop
      vertex 25 -43.3013 74
      vertex 25.0004 -43.3006 0
      vertex 25.0004 -43.3006 74
    endloop
  endfacet
  facet normal 0.868243 -0.496139 0
    outer loop
      vertex 25.0004 -43.3006 0
      vertex 25 -43.3013 74
      vertex 25 -43.3013 0
    endloop
  endfacet
  facet normal 0 0 -1
    outer loop
      vertex 100 -86.6013 0
      vertex 100 0.00126953 0
      vertex 125 -43.3 0
    endloop
  endfacet
  facet normal 0 0 -1
    outer loop
      vertex 50 -86.6013 0
      vertex 100 0.00126953 0
      vertex 100 -86.6013 0
    endloop
  endfacet
  facet normal 0 0 -1
    outer loop
      vertex 49.9996 0.000634766 0
      vertex 100 0.00126953 0
      vertex 50 -86.6013 0
    endloop
  endfacet
  facet normal -0 0 -1
    outer loop
      vertex 100 0.00126953 0
      vertex 49.9996 0.000634766 0
      vertex 50 0.00126953 0
    endloop
  endfacet
  facet normal 0 0 -1
    outer loop
      vertex 25.0004 -43.3006 0
      vertex 49.9996 0.000634766 0
      vertex 50 -86.6013 0
    endloop
  endfacet
  facet normal 0 0 -1
    outer loop
      vertex -25.0004 -43.3006 0
      vertex 25.0004 -43.3006 0
      vertex 25 -43.3013 0
    endloop
  endfacet
  facet normal 0 0 -1
    outer loop
      vertex 25.0004 -43.3006 0
      vertex 25 43.3013 0
      vertex 49.9996 0.000634766 0
    endloop
  endfacet
  facet normal 0 0 -1
    outer loop
      vertex -25.0004 -43.3006 0
      vertex 25 -43.3013 0
      vertex -25 -43.3013 0
    endloop
  endfacet
  facet normal 0 0 -1
    outer loop
      vertex 25.0004 -43.3006 0
      vertex -25.0004 -43.3006 0
      vertex 25 43.3013 0
    endloop
  endfacet
  facet normal -0 0 -1
    outer loop
      vertex 25 43.3013 0
      vertex -25.0004 -43.3006 0
      vertex -25 43.3013 0
    endloop
  endfacet
  facet normal 0 0 -1
    outer loop
      vertex -25.0004 -43.3006 0
      vertex -49.9996 0.000634766 0
      vertex -25 43.3013 0
    endloop
  endfacet
  facet normal 0 0 -1
    outer loop
      vertex -50 -86.6013 0
      vertex -49.9996 0.000634766 0
      vertex -25.0004 -43.3006 0
    endloop
  endfacet
  facet normal 0 0 -1
    outer loop
      vertex -100 -86.6013 0
      vertex -49.9996 0.000634766 0
      vertex -50 -86.6013 0
    endloop
  endfacet
  facet normal 0 0 -1
    outer loop
      vertex -100 0.00126953 0
      vertex -49.9996 0.000634766 0
      vertex -100 -86.6013 0
    endloop
  endfacet
  facet normal 0 0 -1
    outer loop
      vertex -49.9996 0.000634766 0
      vertex -100 0.00126953 0
      vertex -50 0.00126953 0
    endloop
  endfacet
  facet normal 0 -0 -1
    outer loop
      vertex -100 0.00126953 0
      vertex -100 -86.6013 0
      vertex -125 -43.3 0
    endloop
  endfacet
  facet normal 0 -1 0
    outer loop
      vertex -25 -43.3013 0
      vertex 25 -43.3013 74
      vertex -25 -43.3013 74
    endloop
  endfacet
  facet normal 0 -1 -0
    outer loop
      vertex 25 -43.3013 74
      vertex -25 -43.3013 0
      vertex 25 -43.3013 0
    endloop
  endfacet
  facet normal -0.868243 -0.496139 0
    outer loop
      vertex -25 -43.3013 0
      vertex -25.0004 -43.3006 74
      vertex -25.0004 -43.3006 0
    endloop
  endfacet
  facet normal -0.868243 -0.496139 0
    outer loop
      vertex -25.0004 -43.3006 74
      vertex -25 -43.3013 0
      vertex -25 -43.3013 74
    endloop
  endfacet
  facet normal -0.866025 -0.5 0
    outer loop
      vertex 45 0 2
      vertex 22.5 38.9711 74
      vertex 22.5 38.9711 2
    endloop
  endfacet
  facet normal -0.866025 -0.5 0
    outer loop
      vertex 22.5 38.9711 74
      vertex 45 0 2
      vertex 45 0 74
    endloop
  endfacet
  facet normal 0.866025 -0.5 0
    outer loop
      vertex -45 0 74
      vertex -22.5 38.9711 2
      vertex -22.5 38.9711 74
    endloop
  endfacet
  facet normal 0.866025 -0.5 0
    outer loop
      vertex -22.5 38.9711 2
      vertex -45 0 74
      vertex -45 0 2
    endloop
  endfacet
  facet normal 0 -1 0
    outer loop
      vertex -22.5 38.9711 2
      vertex 22.5 38.9711 74
      vertex -22.5 38.9711 74
    endloop
  endfacet
  facet normal 0 -1 -0
    outer loop
      vertex 22.5 38.9711 74
      vertex -22.5 38.9711 2
      vertex 22.5 38.9711 2
    endloop
  endfacet
  facet normal 0.866025 0.5 0
    outer loop
      vertex -22.5 -38.9711 74
      vertex -45 0 2
      vertex -45 0 74
    endloop
  endfacet
  facet normal 0.866025 0.5 0
    outer loop
      vertex -45 0 2
      vertex -22.5 -38.9711 74
      vertex -22.5 -38.9711 2
    endloop
  endfacet
  facet normal 0 0 1
    outer loop
      vertex 22.5 38.9711 2
      vertex 22.5 -38.9711 2
      vertex 45 0 2
    endloop
  endfacet
  facet normal -0 0 1
    outer loop
      vertex -22.5 38.9711 2
      vertex 22.5 -38.9711 2
      vertex 22.5 38.9711 2
    endloop
  endfacet
  facet normal 0 0 1
    outer loop
      vertex -22.5 38.9711 2
      vertex -22.5 -38.9711 2
      vertex 22.5 -38.9711 2
    endloop
  endfacet
  facet normal 0 -0 1
    outer loop
      vertex -22.5 -38.9711 2
      vertex -22.5 38.9711 2
      vertex -45 0 2
    endloop
  endfacet
  facet normal 0 1 -0
    outer loop
      vertex 22.5 -38.9711 2
      vertex -22.5 -38.9711 74
      vertex 22.5 -38.9711 74
    endloop
  endfacet
  facet normal 0 1 0
    outer loop
      vertex -22.5 -38.9711 74
      vertex 22.5 -38.9711 2
      vertex -22.5 -38.9711 2
    endloop
  endfacet
  facet normal -0.866025 0.5 0
    outer loop
      vertex 22.5 -38.9711 2
      vertex 45 0 74
      vertex 45 0 2
    endloop
  endfacet
  facet normal -0.866025 0.5 0
    outer loop
      vertex 45 0 74
      vertex 22.5 -38.9711 2
      vertex 22.5 -38.9711 74
    endloop
  endfacet
  facet normal 0.866025 0.5 0
    outer loop
      vertex 125 -43.3 74
      vertex 100 0.00126953 0
      vertex 100 0.00126953 74
    endloop
  endfacet
  facet normal 0.866025 0.5 0
    outer loop
      vertex 100 0.00126953 0
      vertex 125 -43.3 74
      vertex 125 -43.3 0
    endloop
  endfacet
  facet normal -0.846032 0.533132 0
    outer loop
      vertex 49.9996 0.000634766 0
      vertex 50 0.00126953 74
      vertex 50 0.00126953 0
    endloop
  endfacet
  facet normal -0.846032 0.533132 0
    outer loop
      vertex 50 0.00126953 74
      vertex 49.9996 0.000634766 0
      vertex 49.9996 0.000634766 74
    endloop
  endfacet
  facet normal 0 1 -0
    outer loop
      vertex 100 0.00126953 0
      vertex 50 0.00126953 74
      vertex 100 0.00126953 74
    endloop
  endfacet
  facet normal 0 1 0
    outer loop
      vertex 50 0.00126953 74
      vertex 100 0.00126953 0
      vertex 50 0.00126953 0
    endloop
  endfacet
  facet normal 0.866026 -0.5 0
    outer loop
      vertex 100 -86.6013 74
      vertex 125 -43.3 0
      vertex 125 -43.3 74
    endloop
  endfacet
  facet normal 0.866026 -0.5 0
    outer loop
      vertex 125 -43.3 0
      vertex 100 -86.6013 74
      vertex 100 -86.6013 0
    endloop
  endfacet
  facet normal 0 -1 0
    outer loop
      vertex 50 -86.6013 0
      vertex 100 -86.6013 74
      vertex 50 -86.6013 74
    endloop
  endfacet
  facet normal 0 -1 -0
    outer loop
      vertex 100 -86.6013 74
      vertex 50 -86.6013 0
      vertex 100 -86.6013 0
    endloop
  endfacet
  facet normal -0.866026 -0.499999 0
    outer loop
      vertex 50 -86.6013 0
      vertex 25.0004 -43.3006 74
      vertex 25.0004 -43.3006 0
    endloop
  endfacet
  facet normal -0.866026 -0.499999 0
    outer loop
      vertex 25.0004 -43.3006 74
      vertex 50 -86.6013 0
      vertex 50 -86.6013 74
    endloop
  endfacet
  facet normal -0.866025 -0.5 0
    outer loop
      vertex 120 -43.3 2
      vertex 97.5 -4.32886 74
      vertex 97.5 -4.32886 2
    endloop
  endfacet
  facet normal -0.866025 -0.5 0
    outer loop
      vertex 97.5 -4.32886 74
      vertex 120 -43.3 2
      vertex 120 -43.3 74
    endloop
  endfacet
  facet normal 0.866025 -0.5 0
    outer loop
      vertex 30 -43.3 74
      vertex 52.5 -4.32886 2
      vertex 52.5 -4.32886 74
    endloop
  endfacet
  facet normal 0.866025 -0.5 0
    outer loop
      vertex 52.5 -4.32886 2
      vertex 30 -43.3 74
      vertex 30 -43.3 2
    endloop
  endfacet
  facet normal 0 -1 0
    outer loop
      vertex 52.5 -4.32886 2
      vertex 97.5 -4.32886 74
      vertex 52.5 -4.32886 74
    endloop
  endfacet
  facet normal 0 -1 -0
    outer loop
      vertex 97.5 -4.32886 74
      vertex 52.5 -4.32886 2
      vertex 97.5 -4.32886 2
    endloop
  endfacet
  facet normal 0.866025 0.5 0
    outer loop
      vertex 52.5 -82.2711 74
      vertex 30 -43.3 2
      vertex 30 -43.3 74
    endloop
  endfacet
  facet normal 0.866025 0.5 0
    outer loop
      vertex 30 -43.3 2
      vertex 52.5 -82.2711 74
      vertex 52.5 -82.2711 2
    endloop
  endfacet
  facet normal 0 0 1
    outer loop
      vertex 97.5 -4.32886 2
      vertex 97.5 -82.2711 2
      vertex 120 -43.3 2
    endloop
  endfacet
  facet normal -0 0 1
    outer loop
      vertex 52.5 -4.32886 2
      vertex 97.5 -82.2711 2
      vertex 97.5 -4.32886 2
    endloop
  endfacet
  facet normal 0 0 1
    outer loop
      vertex 52.5 -4.32886 2
      vertex 52.5 -82.2711 2
      vertex 97.5 -82.2711 2
    endloop
  endfacet
  facet normal 0 -0 1
    outer loop
      vertex 52.5 -82.2711 2
      vertex 52.5 -4.32886 2
      vertex 30 -43.3 2
    endloop
  endfacet
  facet normal 0 1 -0
    outer loop
      vertex 97.5 -82.2711 2
      vertex 52.5 -82.2711 74
      vertex 97.5 -82.2711 74
    endloop
  endfacet
  facet normal 0 1 0
    outer loop
      vertex 52.5 -82.2711 74
      vertex 97.5 -82.2711 2
      vertex 52.5 -82.2711 2
    endloop
  endfacet
  facet normal -0.866025 0.5 0
    outer loop
      vertex 97.5 -82.2711 2
      vertex 120 -43.3 74
      vertex 120 -43.3 2
    endloop
  endfacet
  facet normal -0.866025 0.5 0
    outer loop
      vertex 120 -43.3 74
      vertex 97.5 -82.2711 2
      vertex 97.5 -82.2711 74
    endloop
  endfacet
  facet normal 0.846032 0.533132 0
    outer loop
      vertex -49.9996 0.000634766 74
      vertex -50 0.00126953 0
      vertex -50 0.00126953 74
    endloop
  endfacet
  facet normal 0.846032 0.533132 0
    outer loop
      vertex -50 0.00126953 0
      vertex -49.9996 0.000634766 74
      vertex -49.9996 0.000634766 0
    endloop
  endfacet
  facet normal -0.866025 0.5 0
    outer loop
      vertex -125 -43.3 0
      vertex -100 0.00126953 74
      vertex -100 0.00126953 0
    endloop
  endfacet
  facet normal -0.866025 0.5 0
    outer loop
      vertex -100 0.00126953 74
      vertex -125 -43.3 0
      vertex -125 -43.3 74
    endloop
  endfacet
  facet normal 0 1 -0
    outer loop
      vertex -50 0.00126953 0
      vertex -100 0.00126953 74
      vertex -50 0.00126953 74
    endloop
  endfacet
  facet normal 0 1 0
    outer loop
      vertex -100 0.00126953 74
      vertex -50 0.00126953 0
      vertex -100 0.00126953 0
    endloop
  endfacet
  facet normal 0.866026 -0.499999 0
    outer loop
      vertex -50 -86.6013 74
      vertex -25.0004 -43.3006 0
      vertex -25.0004 -43.3006 74
    endloop
  endfacet
  facet normal 0.866026 -0.499999 0
    outer loop
      vertex -25.0004 -43.3006 0
      vertex -50 -86.6013 74
      vertex -50 -86.6013 0
    endloop
  endfacet
  facet normal 0 -1 0
    outer loop
      vertex -100 -86.6013 0
      vertex -50 -86.6013 74
      vertex -100 -86.6013 74
    endloop
  endfacet
  facet normal 0 -1 -0
    outer loop
      vertex -50 -86.6013 74
      vertex -100 -86.6013 0
      vertex -50 -86.6013 0
    endloop
  endfacet
  facet normal -0.866026 -0.5 0
    outer loop
      vertex -100 -86.6013 0
      vertex -125 -43.3 74
      vertex -125 -43.3 0
    endloop
  endfacet
  facet normal -0.866026 -0.5 0
    outer loop
      vertex -125 -43.3 74
      vertex -100 -86.6013 0
      vertex -100 -86.6013 74
    endloop
  endfacet
  facet normal -0.866025 -0.5 0
    outer loop
      vertex -30 -43.3 2
      vertex -52.5 -4.32886 74
      vertex -52.5 -4.32886 2
    endloop
  endfacet
  facet normal -0.866025 -0.5 0
    outer loop
      vertex -52.5 -4.32886 74
      vertex -30 -43.3 2
      vertex -30 -43.3 74
    endloop
  endfacet
  facet normal 0.866025 -0.5 0
    outer loop
      vertex -120 -43.3 74
      vertex -97.5 -4.32886 2
      vertex -97.5 -4.32886 74
    endloop
  endfacet
  facet normal 0.866025 -0.5 0
    outer loop
      vertex -97.5 -4.32886 2
      vertex -120 -43.3 74
      vertex -120 -43.3 2
    endloop
  endfacet
  facet normal 0 -1 0
    outer loop
      vertex -97.5 -4.32886 2
      vertex -52.5 -4.32886 74
      vertex -97.5 -4.32886 74
    endloop
  endfacet
  facet normal 0 -1 -0
    outer loop
      vertex -52.5 -4.32886 74
      vertex -97.5 -4.32886 2
      vertex -52.5 -4.32886 2
    endloop
  endfacet
  facet normal 0.866025 0.5 0
    outer loop
      vertex -97.5 -82.2711 74
      vertex -120 -43.3 2
      vertex -120 -43.3 74
    endloop
  endfacet
  facet normal 0.866025 0.5 0
    outer loop
      vertex -120 -43.3 2
      vertex -97.5 -82.2711 74
      vertex -97.5 -82.2711 2
    endloop
  endfacet
  facet normal 0 0 1
    outer loop
      vertex -52.5 -4.32886 2
      vertex -52.5 -82.2711 2
      vertex -30 -43.3 2
    endloop
  endfacet
  facet normal -0 0 1
    outer loop
      vertex -97.5 -4.32886 2
      vertex -52.5 -82.2711 2
      vertex -52.5 -4.32886 2
    endloop
  endfacet
  facet normal 0 0 1
    outer loop
      vertex -97.5 -4.32886 2
      vertex -97.5 -82.2711 2
      vertex -52.5 -82.2711 2
    endloop
  endfacet
  facet normal 0 -0 1
    outer loop
      vertex -97.5 -82.2711 2
      vertex -97.5 -4.32886 2
      vertex -120 -43.3 2
    endloop
  endfacet
  facet normal 0 1 -0
    outer loop
      vertex -52.5 -82.2711 2
      vertex -97.5 -82.2711 74
      vertex -52.5 -82.2711 74
    endloop
  endfacet
  facet normal 0 1 0
    outer loop
      vertex -97.5 -82.2711 74
      vertex -52.5 -82.2711 2
      vertex -97.5 -82.2711 2
    endloop
  endfacet
  facet normal -0.866025 0.5 0
    outer loop
      vertex -52.5 -82.2711 2
      vertex -30 -43.3 74
      vertex -30 -43.3 2
    endloop
  endfacet
  facet normal -0.866025 0.5 0
    outer loop
      vertex -30 -43.3 74
      vertex -52.5 -82.2711 2
      vertex -52.5 -82.2711 74
    endloop
  endfacet
endsolid OpenSCAD_Model
